<svg width="32" height="32" viewBox="0 0 24 24" fill="none" xmlns="http://www.w3.org/2000/svg">
<path d="M17.93 21.85L17.54 12.94C17.985 12.5878 18.3466 12.1417 18.599 11.6334C18.8514 11.1251 18.9884 10.5674 19 10C19 8.34 17.66 6.5 16 6.5C14.34 6.5 13 8.34 13 10C13.0116 10.5674 13.1486 11.1251 13.401 11.6334C13.6534 12.1417 14.015 12.5878 14.46 12.94L14 23.32" stroke="#FFC700" stroke-linecap="round" stroke-linejoin="round"/>
<path d="M6.07 21.85L6.46 12.92C6.12974 12.8306 5.82938 12.6545 5.59 12.41C5.21441 12.0366 5.00223 11.5296 5 11V8C5 7.73478 5.10536 7.48043 5.29289 7.29289C5.48043 7.10536 5.73478 7 6 7C6.26522 7 6.51957 7.10536 6.70711 7.29289C6.89464 7.48043 7 7.73478 7 8V10.5" stroke="#FFC700" stroke-linecap="round" stroke-linejoin="round"/>
<path d="M9 10.5V8C9 7.73478 9.10536 7.48043 9.29289 7.29289C9.48043 7.10536 9.73478 7 10 7C10.2652 7 10.5196 7.10536 10.7071 7.29289C10.8946 7.48043 11 7.73478 11 8V11C10.9988 11.4353 10.8555 11.8583 10.592 12.2049C10.3285 12.5514 9.95915 12.8025 9.54 12.92L10 23.32" stroke="#FFC700" stroke-linecap="round" stroke-linejoin="round"/>
<path d="M7 10.5V8C7 7.73478 7.10536 7.48043 7.29289 7.29289C7.48043 7.10536 7.73478 7 8 7V7C8.26522 7 8.51957 7.10536 8.70711 7.29289C8.89464 7.48043 9 7.73478 9 8V10.5" stroke="#FFC700" stroke-linecap="round" stroke-linejoin="round"/>
<path d="M12 23.5C18.3513 23.5 23.5 18.3513 23.5 12C23.5 5.64873 18.3513 0.5 12 0.5C5.64873 0.5 0.5 5.64873 0.5 12C0.5 18.3513 5.64873 23.5 12 23.5Z" stroke="#FFC700" stroke-linecap="round" stroke-linejoin="round"/>
</svg>
