<svg width="24" height="25" viewBox="0 0 24 25" fill="none" xmlns="http://www.w3.org/2000/svg">
<path d="M23.5 24.5L15.86 16.86" stroke="#12141F" stroke-linecap="round" stroke-linejoin="round"/>
<path d="M15.86 16.86C14.7892 17.9373 13.4603 18.7222 12 19.14C10.3668 19.6122 8.63321 19.6122 7 19.14C5.54685 18.7191 4.22515 17.9343 3.16 16.86C1.90021 15.6018 1.04193 13.9981 0.693754 12.252C0.345579 10.5059 0.523154 8.69569 1.20401 7.0505C1.88487 5.40531 3.03842 3.99904 4.5187 3.00962C5.99899 2.02019 7.73949 1.49207 9.52 1.49207C11.3005 1.49207 13.041 2.02019 14.5213 3.00962C16.0016 3.99904 17.1551 5.40531 17.836 7.0505C18.5168 8.69569 18.6944 10.5059 18.3462 12.252C17.9981 13.9981 17.1398 15.6018 15.88 16.86H15.86Z" stroke="#12141F" stroke-linecap="round" stroke-linejoin="round"/>
</svg>
